PathFileType	4	(X/Y/Z)	C:/Users/opensim2020/Desktop/walking_exp_matlab/subject01_walking12_straight_04.trc																																																																																																																																		
DataRate	CameraRate	NumFrames	NumMarkers	Units	OrigDataRate	OrigDataStartFrame	OrigNumFrames																																																																																																																														
100	100	4	44	mm	100	2458	172																																																																																																																														
Frame#	Time	LFHD			RFHD			LBHD			RBHD			C7			T10			CLAV			STRN			RBAK			LSHO			LUPA			LELB			LFRM			LWRA			LWRB			LFIN			RSHO			RUPA			RELB			RFRM			RWRA			RWRB			RFIN			LASI			RASI			LPSI			RPSI			LTHI			LKNE			LTIB			LANK			LHEE			LTOE			RTHI			RKNE			RTIB			RANK			RHEE			RTOE			*39			*40			*41			*42			*43		
		X1	Y1	Z1	X2	Y2	Z2	X3	Y3	Z3	X4	Y4	Z4	X5	Y5	Z5	X6	Y6	Z6	X7	Y7	Z7	X8	Y8	Z8	X9	Y9	Z9	X10	Y10	Z10	X11	Y11	Z11	X12	Y12	Z12	X13	Y13	Z13	X14	Y14	Z14	X15	Y15	Z15	X16	Y16	Z16	X17	Y17	Z17	X18	Y18	Z18	X19	Y19	Z19	X20	Y20	Z20	X21	Y21	Z21	X22	Y22	Z22	X23	Y23	Z23	X24	Y24	Z24	X25	Y25	Z25	X26	Y26	Z26	X27	Y27	Z27	X28	Y28	Z28	X29	Y29	Z29	X30	Y30	Z30	X31	Y31	Z31	X32	Y32	Z32	X33	Y33	Z33	X34	Y34	Z34	X35	Y35	Z35	X36	Y36	Z36	X37	Y37	Z37	X38	Y38	Z38	X39	Y39	Z39	X40	Y40	Z40	X41	Y41	Z41	X42	Y42	Z42	X43	Y43	Z43	X44	Y44	Z44
																																																																																																																																					
87	0.86	55.8914	1640.79321	-1578.74109	72.70036	1644.55957	-1466.46313	-65.97952	1616.85266	-1567.78223	-51.43929	1620.5835	-1447.53992	-130.51344	1416.2616	-1520.64404	-165.71643	1121.01416	-1496.54907	11.87662	1345.10144	-1520.07947	54.6877	1192.44397	-1517.03442	-186.57903	1223.77673	-1432.66016	-53.7146	1366.7157	-1682.10352	-109.16758	1181.37659	-1751.49109	-143.98978	1035.56873	-1736.95239	-130.25706	922.35211	-1755.51038	-76.53519	793.72833	-1732.58862	-133.74814	799.77014	-1753.31079	-105.59008	718.6889	-1756.20349	-48.52394	1381.02734	-1366.86841	-108.734	1188.55579	-1256.22705	-102.80075	1060.92908	-1241.26697	-30.03294	958.6734	-1221.88647	87.22772	887.53937	-1258.06946	52.46606	867.9859	-1215.77319	118.83579	817.06506	-1224.19141	22.77271	921.60345	-1594.67004	7.27306	914.88879	-1378.63611	-167.41753	927.08997	-1558.48755	-174.84924	931.10449	-1414.47363	75.70668	606.64587	-1650.17542	102.66237	476.17474	-1628.6488	82.07681	287.65842	-1648.88855	70.07457	69.67471	-1603.19019	21.83941	39.08771	-1554.85291	217.82213	34.05757	-1597.43274	-90.27653	585.59888	-1321.89978	-116.8802	426.25357	-1337.29529	-264.11948	325.22971	-1343.22412	-407.1673	174.58856	-1388.39746	-456.48074	187.08463	-1444.23438	-361.37466	37.18238	-1403.2207	66.4472	1679.35706	-1488.91638	-1972.98096	1023.99274	3102.07129	-2012.43457	1022.02423	3140.68311	NaN	NaN	NaN	NaN	NaN	NaN
88	0.87	67.33072	1641.02161	-1580.96619	83.85281	1645.03528	-1468.6145	-54.53742	1617.23669	-1570.15601	-40.18297	1621.21423	-1449.85425	-119.35922	1416.57471	-1522.79321	-154.27408	1121.41394	-1498.22729	23.11819	1345.71448	-1521.77246	66.07574	1193.15039	-1518.33972	-175.52585	1224.33936	-1434.5426	-42.04861	1367.09106	-1683.95007	-95.08798	1181.21069	-1753.5957	-128.38618	1035.18457	-1739.72119	-113.54819	922.20172	-1758.36646	-59.00113	793.91925	-1735.44043	-116.11293	799.61292	-1756.50159	-87.26024	718.83838	-1759.49377	-38.66609	1381.87646	-1369.34814	-99.24439	1189.0946	-1258.83105	-93.79884	1061.57751	-1244.32983	-22.96223	958.22498	-1224.14014	93.70132	885.14514	-1259.2749	58.19315	866.16718	-1217.06677	123.82245	814.02679	-1224.8479	34.08429	922.6792	-1596.77515	18.75265	915.22473	-1380.83337	-155.92174	927.77301	-1559.68384	-163.08017	931.15961	-1415.39197	86.87988	606.08264	-1650.46692	111.73158	474.71469	-1628.85229	87.72156	287.08026	-1648.81226	70.32214	69.57338	-1602.84253	22.07487	39.04449	-1554.68274	218.23943	33.48046	-1597.22131	-71.98284	584.35992	-1321.91992	-96.08294	425.23401	-1336.74902	-245.75075	328.00668	-1342.57019	-392.83386	181.52629	-1387.77197	-440.79242	197.62558	-1443.61462	-356.31494	41.10695	-1404.03479	77.51434	1679.66125	-1491.34705	-1973.11096	1023.35339	3102.01025	-2012.50586	1022.01703	3140.79956	NaN	NaN	NaN	NaN	NaN	NaN
89	0.88	78.72701	1641.31848	-1583.06274	95.11209	1645.64954	-1470.73352	-43.19794	1617.7124	-1572.45117	-29.0846	1621.86743	-1452.37488	-108.23882	1417.23401	-1524.93091	-143.06714	1121.9364	-1499.99622	34.33517	1346.37073	-1523.30273	77.33466	1193.81128	-1519.54077	-164.67615	1225.16296	-1436.22388	-30.44482	1367.72046	-1685.6698	-81.075	1181.2887	-1755.64551	-112.71774	1035.01501	-1742.47021	-96.5797	922.28827	-1761.20386	-40.99461	794.60681	-1738.3916	-97.9918	799.70111	-1759.64575	-68.42848	719.13373	-1762.8783	-27.86093	1382.80273	-1370.81665	-89.76093	1189.69861	-1261.09082	-84.94047	1062.31653	-1247.38171	-15.67442	957.88599	-1226.37964	99.87831	882.66339	-1260.40698	63.73978	864.28699	-1218.55664	128.35338	810.9613	-1225.60876	45.25555	923.62231	-1598.74048	29.9463	915.90765	-1382.95898	-144.63068	928.39099	-1560.90503	-151.84175	931.1629	-1416.43604	96.49783	605.53735	-1651.21948	119.88416	473.83051	-1629.63855	92.18771	286.89929	-1648.75598	70.7642	69.60027	-1602.71021	22.07768	39.21156	-1554.74304	218.74706	33.04029	-1596.6311	-53.52715	583.13092	-1322.10083	-74.73575	424.17679	-1336.39368	-226.33755	331.09418	-1342.22241	-377.82877	189.5434	-1387.6709	-424.17523	208.69136	-1443.0835	-349.22177	47.19256	-1403.98499	88.75712	1680.17188	-1493.57837	-1973.02258	1023.44	3101.92261	-2012.49072	1022.10944	3140.80518	NaN	NaN	NaN	NaN	NaN	NaN
90	0.89	90.01878	1641.74878	-1585.02588	106.26929	1646.31287	-1472.68542	-31.9207	1618.21436	-1574.5354	-17.96883	1622.71985	-1454.45154	-97.10596	1417.84021	-1526.72363	-131.94382	1122.59338	-1501.76196	45.48754	1347.09351	-1524.5957	88.36922	1194.48291	-1520.63586	-153.9559	1226.0459	-1437.74463	-18.72607	1368.38818	-1687.13464	-67.0662	1181.61853	-1757.69067	-97.10736	1035.03442	-1745.15417	-79.5576	922.57397	-1764.06677	-22.61168	795.55261	-1741.25415	-79.53222	800.00635	-1762.89148	-49.07333	719.96234	-1766.51465	-17.28525	1383.58948	-1372.36121	-80.25079	1190.55029	-1263.06824	-76.14907	1063.03601	-1250.24927	-8.79497	957.35797	-1228.45007	105.4718	879.9433	-1261.49487	68.91658	862.40918	-1219.87524	132.56653	807.80872	-1226.30249	56.17361	924.46167	-1600.38538	40.4614	916.60626	-1384.6449	-133.60065	928.98779	-1562.19434	-141.00307	931.06427	-1417.55371	104.62969	605.14075	-1652.35669	127.00067	473.35614	-1630.85327	95.30759	286.77969	-1648.6228	70.97752	69.80561	-1602.6842	22.36858	39.24158	-1554.49573	218.8176	32.77101	-1596.71582	-35.19046	581.82458	-1322.61975	-52.92112	423.24951	-1336.49109	-206.7915	334.28333	-1341.59387	-361.23285	197.79549	-1387.94128	-406.63	219.31374	-1443.32434	-339.93439	53.60413	-1402.87842	100.19897	1680.92871	-1495.58191	-1973.1676	1023.53668	3101.93604	-2012.46277	1022.0788	3140.89624	NaN	NaN	NaN	NaN	NaN	NaN
